# Blender v3.2.0 OBJ File: 'musicComputer.blend'
# www.blender.org
mtllib MT_Computer2.mtl
o Cube_Cube.003
v -0.328137 -0.328137 0.328137
v -0.252518 -0.103173 0.236960
v -0.283834 -0.283834 -0.384571
v -0.283834 0.193383 -0.384571
v 0.328137 -0.328137 0.328137
v 0.252518 -0.103173 0.236960
v 0.283834 -0.283834 -0.384571
v 0.283834 0.193383 -0.384571
v -0.328137 -0.328137 0.000280
v -0.252518 0.155698 0.009043
v 0.328137 -0.328137 0.000280
v 0.252518 0.155698 0.009043
v 0.328137 0.237687 0.000280
v 0.328137 -0.134698 0.328137
v -0.328137 -0.134698 0.328137
v -0.328137 0.237687 0.000280
v 0.274252 0.197243 0.035888
v 0.274252 -0.094254 0.292530
v -0.274252 -0.094254 0.292530
v -0.274252 0.197243 0.035888
v -0.328137 0.237687 -0.328137
v -0.328137 -0.328137 -0.328137
v 0.328137 -0.328137 -0.328137
v 0.328137 0.237687 -0.328137
vt 0.391681 0.171256
vt 0.618162 0.171256
vt 0.618162 0.284593
vt 0.391681 0.284593
vt 0.409415 0.299882
vt 0.600429 0.299882
vt 0.600429 0.495784
vt 0.409414 0.495784
vt 0.415059 0.624411
vt 0.641539 0.624411
vt 0.612010 0.742476
vt 0.386019 0.734840
vt 0.612010 0.968956
vt 0.385529 0.968956
vt 0.157818 0.624411
vt 0.157818 0.737554
vt 0.667636 0.641655
vt 0.841924 0.641655
vt 0.841924 0.720310
vt 0.667636 0.720309
vt 0.618162 0.511074
vt 0.868020 0.511074
vt 0.868020 0.624411
vt 0.157818 0.511074
vt 0.397054 0.511074
vt 0.391681 0.058112
vt 0.618162 0.058112
vt 0.660910 0.635536
vt 0.660135 0.724491
vt 0.849424 0.724103
vt 0.868020 0.737554
vt 0.849424 0.635149
vn -1.0000 0.0000 0.0000
vn 0.0000 0.0000 -1.0000
vn 1.0000 0.0000 0.0000
vn 0.0000 0.0000 1.0000
vn 0.0000 -1.0000 0.0000
vn 0.0000 0.6608 0.7506
vn 0.0000 1.0000 0.0000
vn -0.9097 0.2745 0.3117
vn -0.0000 0.9874 -0.1585
vn 0.9097 0.2745 0.3117
vn 0.0000 -0.5427 0.8399
vn -0.7866 0.0000 -0.6175
vn 0.0000 -0.7866 -0.6175
vn 0.0000 0.7866 -0.6175
vn 0.7866 0.0000 -0.6175
usemtl Material.001
s off
f 9/1/1 16/2/1 21/3/1 22/4/1
f 3/5/2 4/6/2 8/7/2 7/8/2
f 11/9/3 13/10/3 14/11/3 5/12/3
f 5/12/4 14/11/4 15/13/4 1/14/4
f 9/15/5 11/9/5 5/12/5 1/16/5
f 12/17/6 10/18/6 2/19/6 6/20/6
f 24/21/7 21/22/7 16/23/7 13/10/7
f 22/24/5 23/25/5 11/9/5 9/15/5
f 23/25/3 24/21/3 13/10/3 11/9/3
f 1/26/1 15/27/1 16/2/1 9/1/1
f 17/28/6 18/29/6 14/11/6 13/10/6
f 18/29/6 19/30/6 15/31/6 14/11/6
f 19/30/6 20/32/6 16/23/6 15/31/6
f 20/32/6 17/28/6 13/10/6 16/23/6
f 12/17/8 6/20/8 18/29/8 17/28/8
f 6/20/9 2/19/9 19/30/9 18/29/9
f 2/19/10 10/18/10 20/32/10 19/30/10
f 10/18/11 12/17/11 17/28/11 20/32/11
f 4/6/12 3/5/12 22/4/12 21/3/12
f 3/5/13 7/8/13 23/25/13 22/4/13
f 8/7/14 4/6/14 21/3/14 24/21/14
f 7/8/15 8/7/15 24/21/15 23/25/15
